# xmcd
#
# Track frame offsets:
# 150
# 13330
# 42077
# 92357
# 133482
# 171982
# 193257
# 263880
#
# Disc length: 3870 seconds
#
# Revision: 0
# Processed by: cddbd v1.4PL0 Copyright (c) Steve Scherf et al.
# Submitted via: Audion 3.0.2 (http://www.panic.com/audion/)
#
DISCID=710f1c08
DTITLE=Sound Portraits - A Sound Portraits Sampler - Disc One
DYEAR=1900
DGENRE=
TTITLE0=Introduction
TTITLE1=American Talker
TTITLE2=Remembering Stonewall (Excerpt)
TTITLE3=The Gods of Times Square (Excerpt)
TTITLE4=The Sunshine Hotel (Excerpt)
TTITLE5=Julius Knipl: The Remains of Dinner
TTITLE6=Ghetto Life 101 (Excerpt)
TTITLE7=Remorse (Excerpt)
EXTD=
EXTT0=
EXTT1=
EXTT2=
EXTT3=
EXTT4=
EXTT5=
EXTT6=
EXTT7=
PLAYORDER=
